<svg xmlns="http://www.w3.org/2000/svg" style="display:none" aria-hidden="true">
<!-- ============================================================
     ICON SPRITE · thin outline / sketch language
     24×24 grid · 2px stroke · round caps · currentColor
     Reference: <svg class="icon"><use href="…/icons.svg#i-arrow"/></svg>
     ============================================================ -->
<defs>
  <linearGradient id="i-ai-grad" x1="0" y1="0" x2="1" y2="1">
    <stop offset="0" stop-color="#8661c5"/><stop offset="1" stop-color="#0f6cbd"/>
  </linearGradient>
</defs>

<symbol id="i-arrow" viewBox="0 0 24 24" fill="none" stroke="currentColor" stroke-width="2" stroke-linecap="round" stroke-linejoin="round">
  <path d="M4 12h15M13 6l6 6-6 6"/></symbol>
<symbol id="i-arrow-hand" viewBox="0 0 56 40" fill="none" stroke="currentColor" stroke-width="2.4" stroke-linecap="round" stroke-linejoin="round">
  <path d="M4,22 C20,10 34,30 48,18 M40,10 L50,18 L39,26"/></symbol>
<symbol id="i-check" viewBox="0 0 24 24" fill="none" stroke="currentColor" stroke-width="2.2" stroke-linecap="round" stroke-linejoin="round">
  <path d="M4 12.5l5 5L20 6"/></symbol>
<symbol id="i-close" viewBox="0 0 24 24" fill="none" stroke="currentColor" stroke-width="2.2" stroke-linecap="round">
  <path d="M6 6l12 12M18 6L6 18"/></symbol>
<symbol id="i-target" viewBox="0 0 24 24" fill="none" stroke="currentColor" stroke-width="2" stroke-linecap="round">
  <circle cx="12" cy="12" r="8"/><circle cx="12" cy="12" r="4"/><circle cx="12" cy="12" r=".6" fill="currentColor"/></symbol>
<symbol id="i-flag" viewBox="0 0 24 24" fill="none" stroke="currentColor" stroke-width="2" stroke-linecap="round" stroke-linejoin="round">
  <path d="M6 21V4M6 4h11l-2 4 2 4H6"/></symbol>
<symbol id="i-warning" viewBox="0 0 24 24" fill="none" stroke="currentColor" stroke-width="2" stroke-linecap="round" stroke-linejoin="round">
  <path d="M10.3 3.9 1.8 18a2 2 0 0 0 1.7 3h16.9a2 2 0 0 0 1.7-3L13.7 3.9a2 2 0 0 0-3.4 0Z"/><path d="M12 9v4M12 17h.01"/></symbol>
<symbol id="i-brain" viewBox="0 0 24 24" fill="none" stroke="currentColor" stroke-width="2" stroke-linecap="round" stroke-linejoin="round">
  <path d="M12 4a3 3 0 0 0-3 3 3 3 0 0 0-1 5.8V16a3 3 0 0 0 6 0V7a3 3 0 0 0-2-3Z"/><path d="M9 9h.01M12 12h.01"/></symbol>
<symbol id="i-sparkle" viewBox="0 0 24 24" fill="none" stroke="currentColor" stroke-width="2" stroke-linecap="round" stroke-linejoin="round">
  <path d="M12 3l1.8 5.2L19 10l-5.2 1.8L12 17l-1.8-5.2L5 10l5.2-1.8L12 3Z"/></symbol>
<symbol id="i-chart" viewBox="0 0 24 24" fill="none" stroke="currentColor" stroke-width="2" stroke-linecap="round" stroke-linejoin="round">
  <path d="M4 20V4M4 20h16M8 16v-4M12 16V8M16 16v-6"/></symbol>
<symbol id="i-grid" viewBox="0 0 24 24" fill="none" stroke="currentColor" stroke-width="2" stroke-linecap="round" stroke-linejoin="round">
  <rect x="4" y="4" width="7" height="7" rx="1.5"/><rect x="13" y="4" width="7" height="7" rx="1.5"/>
  <rect x="4" y="13" width="7" height="7" rx="1.5"/><rect x="13" y="13" width="7" height="7" rx="1.5"/></symbol>
<symbol id="i-layers" viewBox="0 0 24 24" fill="none" stroke="currentColor" stroke-width="2" stroke-linecap="round" stroke-linejoin="round">
  <path d="M12 3 3 8l9 5 9-5-9-5ZM3 13l9 5 9-5M3 18l9 5 9-5"/></symbol>
<symbol id="i-shield" viewBox="0 0 24 24" fill="none" stroke="currentColor" stroke-width="2" stroke-linecap="round" stroke-linejoin="round">
  <path d="M12 3l7 3v5c0 4.5-3 8-7 10-4-2-7-5.5-7-10V6l7-3Z"/><path d="M9 12l2 2 4-4"/></symbol>
<symbol id="i-users" viewBox="0 0 24 24" fill="none" stroke="currentColor" stroke-width="2" stroke-linecap="round" stroke-linejoin="round">
  <circle cx="9" cy="8" r="3.2"/><path d="M3 20c0-3.3 2.7-6 6-6s6 2.7 6 6"/><path d="M16 5.5a3.2 3.2 0 0 1 0 6M18 20c0-2.4-1-4.5-2.5-5.7"/></symbol>
<symbol id="i-clock" viewBox="0 0 24 24" fill="none" stroke="currentColor" stroke-width="2" stroke-linecap="round" stroke-linejoin="round">
  <circle cx="12" cy="12" r="8.5"/><path d="M12 7v5l3.5 2"/></symbol>
<symbol id="i-doc" viewBox="0 0 24 24" fill="none" stroke="currentColor" stroke-width="2" stroke-linecap="round" stroke-linejoin="round">
  <path d="M7 3h7l4 4v14H7a1 1 0 0 1-1-1V4a1 1 0 0 1 1-1Z"/><path d="M14 3v4h4M9 12h6M9 16h6"/></symbol>
<symbol id="i-bulb" viewBox="0 0 24 24" fill="none" stroke="currentColor" stroke-width="2" stroke-linecap="round" stroke-linejoin="round">
  <path d="M9 18h6M10 21h4M12 3a6 6 0 0 0-4 10.5c.8.8 1 1.4 1 2.5h6c0-1.1.2-1.7 1-2.5A6 6 0 0 0 12 3Z"/></symbol>
<symbol id="i-route" viewBox="0 0 24 24" fill="none" stroke="currentColor" stroke-width="2" stroke-linecap="round" stroke-linejoin="round">
  <circle cx="6" cy="6" r="2.4"/><circle cx="18" cy="18" r="2.4"/><path d="M8 6h7a3 3 0 0 1 0 6H9a3 3 0 0 0 0 6h7"/></symbol>
<symbol id="i-compass" viewBox="0 0 24 24" fill="none" stroke="currentColor" stroke-width="2" stroke-linecap="round" stroke-linejoin="round">
  <circle cx="12" cy="12" r="8.5"/><path d="M15.5 8.5l-2 5-5 2 2-5 5-2Z"/></symbol>
<symbol id="i-gauge" viewBox="0 0 24 24" fill="none" stroke="currentColor" stroke-width="2" stroke-linecap="round" stroke-linejoin="round">
  <path d="M4 15a8 8 0 1 1 16 0"/><path d="M12 15l4-3"/></symbol>
</svg>
